<svg version="1.1" xmlns="http://www.w3.org/2000/svg" xmlns:xlink="http://www.w3.org/1999/xlink" width="276.22298" height="230.35654" viewBox="0,0,276.22298,230.35654"><g transform="translate(-101.88851,-64.07098)"><g data-paper-data="{&quot;isPaintingLayer&quot;:true}" fill="#ffffff" fill-rule="nonzero" stroke="none" stroke-width="0" stroke-linecap="butt" stroke-linejoin="miter" stroke-miterlimit="10" stroke-dasharray="" stroke-dashoffset="0" style="mix-blend-mode: normal"><g><path d="M102.94157,221.14237c0,-3.11341 3.24372,-5.63732 7.24505,-5.63732h14.4901c3.62252,0 5.43379,1.40933 7.24505,2.81866l7.24505,5.63732c1.81126,1.40933 3.62252,2.81866 7.24505,2.81866h21.73515c3.62252,0 5.43379,-1.40933 7.24505,-2.81866l7.24505,-5.63732c1.81126,-1.40933 3.62252,-2.81866 7.24505,-2.81866h180.98427c4.00133,0 7.24505,2.52391 7.24505,5.63732v56.37319c0,3.11341 -3.24372,5.63732 -7.24505,5.63732h-180.98427c-3.62252,0 -5.43379,1.40933 -7.24505,2.81866l-7.24505,5.63732c-1.81126,1.40933 -3.62252,2.81866 -7.24505,2.81866h-21.73515c-3.62252,0 -5.43379,-1.40933 -7.24505,-2.81866l-7.24505,-5.63732c-1.81126,-1.40933 -3.62252,-2.81866 -7.24505,-2.81866h-14.4901c-4.00133,0 -7.24505,-2.52391 -7.24505,-5.63732z"/><path d="M101.88851,145.7464c0,-3.11341 3.24372,-5.63732 7.24505,-5.63732h14.4901c3.62252,0 5.43379,1.40933 7.24505,2.81866l7.24505,5.63732c1.81126,1.40933 3.62252,2.81866 7.24505,2.81866h21.73515c3.62252,0 5.43379,-1.40933 7.24505,-2.81866l7.24505,-5.63732c1.81126,-1.40933 3.62252,-2.81866 7.24505,-2.81866h180.98427c4.00133,0 7.24505,2.52391 7.24505,5.63732v56.37319c0,3.11341 -3.24372,5.63732 -7.24505,5.63732h-180.98427c-3.62252,0 -5.43379,1.40933 -7.24505,2.81866l-7.24505,5.63732c-1.81126,1.40933 -3.62252,2.81866 -7.24505,2.81866h-21.73515c-3.62252,0 -5.43379,-1.40933 -7.24505,-2.81866l-7.24505,-5.63732c-1.81126,-1.40933 -3.62252,-2.81866 -7.24505,-2.81866h-14.4901c-4.00133,0 -7.24505,-2.52391 -7.24505,-5.63732z"/><path d="M101.88851,69.7083c0,-3.11341 3.24372,-5.63732 7.24505,-5.63732h14.4901c3.62252,0 5.43379,1.40933 7.24505,2.81866l7.24505,5.63732c1.81126,1.40933 3.62252,2.81866 7.24505,2.81866h21.73515c3.62252,0 5.43379,-1.40933 7.24505,-2.81866l7.24505,-5.63732c1.81126,-1.40933 3.62252,-2.81866 7.24505,-2.81866h180.98427c4.00133,0 7.24505,2.52391 7.24505,5.63732v56.37319c0,3.11341 -3.24372,5.63732 -7.24505,5.63732h-180.98427c-3.62252,0 -5.43379,1.40933 -7.24505,2.81866l-7.24505,5.63732c-1.81126,1.40933 -3.62252,2.81866 -7.24505,2.81866h-21.73515c-3.62252,0 -5.43379,-1.40933 -7.24505,-2.81866l-7.24505,-5.63732c-1.81126,-1.40933 -3.62252,-2.81866 -7.24505,-2.81866h-14.4901c-4.00133,0 -7.24505,-2.52391 -7.24505,-5.63732z"/></g></g></g></svg>