<svg version="1.1" xmlns="http://www.w3.org/2000/svg" xmlns:xlink="http://www.w3.org/1999/xlink" width="19.8" height="22" viewBox="0,0,19.8,22"><g transform="translate(-230.1,-169)"><g data-paper-data="{&quot;isPaintingLayer&quot;:true}" fill="#ffffff" fill-rule="nonzero" stroke="none" stroke-width="1" stroke-linecap="butt" stroke-linejoin="miter" stroke-miterlimit="10" stroke-dasharray="" stroke-dashoffset="0" style="mix-blend-mode: normal"><path d="M238.95,191c-0.5,0 -0.96667,-0.1125 -1.4,-0.3375c-0.43333,-0.225 -0.79167,-0.54583 -1.075,-0.9625l-6.375,-9.325l0.6,-0.575c0.31667,-0.31667 0.69167,-0.5 1.125,-0.55c0.43333,-0.05 0.825,0.05 1.175,0.3l2.9,2.025v-9.575c0,-0.28333 0.09583,-0.52083 0.2875,-0.7125c0.19167,-0.19167 0.42917,-0.2875 0.7125,-0.2875c0.28333,0 0.52083,0.09583 0.7125,0.2875c0.19167,0.19167 0.2875,0.42917 0.2875,0.7125v13.425l-3.7,-2.6l3.925,5.725c0.08333,0.13333 0.2,0.24167 0.35,0.325c0.15,0.08333 0.30833,0.125 0.475,0.125h6.95c0.55,0 1.02083,-0.19583 1.4125,-0.5875c0.39167,-0.39167 0.5875,-0.8625 0.5875,-1.4125v-14c0,-0.28333 0.09583,-0.52083 0.2875,-0.7125c0.19167,-0.19167 0.42917,-0.2875 0.7125,-0.2875c0.28333,0 0.52083,0.09583 0.7125,0.2875c0.19167,0.19167 0.2875,0.42917 0.2875,0.7125v14c0,1.1 -0.39167,2.04167 -1.175,2.825c-0.78333,0.78333 -1.725,1.175 -2.825,1.175zM239.9,180v-10c0,-0.28333 0.09583,-0.52083 0.2875,-0.7125c0.19167,-0.19167 0.42917,-0.2875 0.7125,-0.2875c0.28333,0 0.52083,0.09583 0.7125,0.2875c0.19167,0.19167 0.2875,0.42917 0.2875,0.7125v10zM243.9,180v-9c0,-0.28333 0.09583,-0.52083 0.2875,-0.7125c0.19167,-0.19167 0.42917,-0.2875 0.7125,-0.2875c0.28333,0 0.52083,0.09583 0.7125,0.2875c0.19167,0.19167 0.2875,0.42917 0.2875,0.7125v9z"/></g></g></svg>