<svg version="1.1" xmlns="http://www.w3.org/2000/svg" xmlns:xlink="http://www.w3.org/1999/xlink" width="20.68085" height="23.37131" viewBox="0,0,20.68085,23.37131"><g transform="translate(-230.1,-169)"><g data-paper-data="{&quot;isPaintingLayer&quot;:true}" fill-rule="nonzero" stroke-linejoin="miter" stroke-miterlimit="10" stroke-dasharray="" stroke-dashoffset="0" style="mix-blend-mode: normal"><path d="M238.95,191c-0.5,0 -0.96667,-0.1125 -1.4,-0.3375c-0.43333,-0.225 -0.79167,-0.54583 -1.075,-0.9625l-6.375,-9.325l0.6,-0.575c0.31667,-0.31667 0.69167,-0.5 1.125,-0.55c0.43333,-0.05 0.825,0.05 1.175,0.3l2.9,2.025v-3.41751c0.66321,0.83201 1.32721,1.66143 2,2.4787v4.78881l-3.7,-2.6l3.925,5.725c0.08333,0.13333 0.2,0.24167 0.35,0.325c0.15,0.08333 0.30833,0.125 0.475,0.125l6.22348,0c0.56353,0.63063 1.12808,1.26036 1.69305,1.88969c-0.30731,0.07354 -0.62949,0.11031 -0.96654,0.11031z" fill="#ffffff" stroke="none" stroke-width="1" stroke-linecap="butt"/><path d="M247.9,173c0,-0.28333 0.09583,-0.52083 0.2875,-0.7125c0.19167,-0.19167 0.42917,-0.2875 0.7125,-0.2875c0.28333,0 0.52083,0.09583 0.7125,0.2875c0.19167,0.19167 0.2875,0.42917 0.2875,0.7125v14c0,0.59607 -0.11501,1.14564 -0.34502,1.64873c-0.55226,-0.61518 -1.1041,-1.23075 -1.65498,-1.84717z" fill="#ffffff" stroke="none" stroke-width="1" stroke-linecap="butt"/><path d="M243.9,180v-9c0,-0.28333 0.09583,-0.52083 0.2875,-0.7125c0.19167,-0.19167 0.42917,-0.2875 0.7125,-0.2875c0.28333,0 0.52083,0.09583 0.7125,0.2875c0.19167,0.19167 0.2875,0.42917 0.2875,0.7125v9z" fill="#ffffff" stroke="none" stroke-width="1" stroke-linecap="butt"/><path d="M239.9,170c0,-0.28333 0.09583,-0.52083 0.2875,-0.7125c0.19167,-0.19167 0.42917,-0.2875 0.7125,-0.2875c0.28333,0 0.52083,0.09583 0.7125,0.2875c0.19167,0.19167 0.2875,0.42917 0.2875,0.7125v9.9568c-0.12897,-0.15118 -0.25776,-0.30251 -0.38638,-0.45399c-0.54413,-0.64087 -1.08076,-1.29113 -1.61362,-1.94648z" fill="#ffffff" stroke="none" stroke-width="1" stroke-linecap="butt"/><path d="M235.9,172c0,-0.28333 0.09583,-0.52083 0.2875,-0.7125c0.19167,-0.19167 0.42917,-0.2875 0.7125,-0.2875c0.28333,0 0.52083,0.09583 0.7125,0.2875c0.19167,0.19167 0.2875,0.42917 0.2875,0.7125v3.06814c-0.66271,-0.82805 -1.32692,-1.65565 -2,-2.47442z" fill="#ffffff" stroke="none" stroke-width="1" stroke-linecap="butt"/><path d="M233.15928,172.57761l16.37157,18.54369" fill="none" stroke="#ff0000" stroke-width="2.5" stroke-linecap="round"/></g></g></svg>